{
  "accessors": [
    {
      "bufferView": 2,
      "componentType": 5126,
      "count": 5276,
      "max": [
        18.18944549560547,
        18.411357879638672,
        6.73518180847168
      ],
      "min": [
        -56.593807220458984,
        -59.80070495605469,
        -4.641637802124023
      ],
      "type": "VEC3"
    },
    {
      "bufferView": 2,
      "byteOffset": 63312,
      "componentType": 5126,
      "count": 5276,
      "max": [
        1.0,
        1.0,
        1.0
      ],
      "min": [
        -1.0,
        -1.0,
        -1.0
      ],
      "type": "VEC3"
    },
    {
      "bufferView": 1,
      "componentType": 5126,
      "count": 5276,
      "max": [
        23.9574031829834,
        5.048389911651611
      ],
      "min": [
        -15.737374305725098,
        -2.225245714187622
      ],
      "type": "VEC2"
    },
    {
      "bufferView": 0,
      "componentType": 5125,
      "count": 18792,
      "type": "SCALAR"
    },
    {
      "bufferView": 2,
      "byteOffset": 126624,
      "componentType": 5126,
      "count": 1315,
      "max": [
        18.189443588256836,
        18.411357879638672,
        6.998223304748535
      ],
      "min": [
        -56.593807220458984,
        -58.40660858154297,
        -5.214072227478027
      ],
      "type": "VEC3"
    },
    {
      "bufferView": 2,
      "byteOffset": 142404,
      "componentType": 5126,
      "count": 1315,
      "max": [
        1.0,
        1.0,
        1.0
      ],
      "min": [
        -1.0,
        -1.0,
        -1.0
      ],
      "type": "VEC3"
    },
    {
      "bufferView": 1,
      "byteOffset": 42208,
      "componentType": 5126,
      "count": 1315,
      "max": [
        1.0,
        1.0
      ],
      "min": [
        0.0,
        0.0
      ],
      "type": "VEC2"
    },
    {
      "bufferView": 0,
      "byteOffset": 75168,
      "componentType": 5125,
      "count": 3378,
      "type": "SCALAR"
    },
    {
      "bufferView": 2,
      "byteOffset": 158184,
      "componentType": 5126,
      "count": 1846,
      "max": [
        17.979352951049805,
        18.14948272705078,
        7.377639293670654
      ],
      "min": [
        -56.2400016784668,
        -58.03413009643555,
        -5.284095287322998
      ],
      "type": "VEC3"
    },
    {
      "bufferView": 2,
      "byteOffset": 180336,
      "componentType": 5126,
      "count": 1846,
      "max": [
        1.0,
        1.0,
        1.0
      ],
      "min": [
        -0.9914449453353882,
        -0.9914449453353882,
        -1.0
      ],
      "type": "VEC3"
    },
    {
      "bufferView": 1,
      "byteOffset": 52728,
      "componentType": 5126,
      "count": 1846,
      "max": [
        1.0,
        1.0
      ],
      "min": [
        0.0,
        0.0
      ],
      "type": "VEC2"
    },
    {
      "bufferView": 0,
      "byteOffset": 88680,
      "componentType": 5125,
      "count": 4122,
      "type": "SCALAR"
    },
    {
      "bufferView": 2,
      "byteOffset": 202488,
      "componentType": 5126,
      "count": 576,
      "max": [
        1.7002639770507813,
        0.4260578155517578,
        6.411442756652832
      ],
      "min": [
        -58.61487579345703,
        -58.88292694091797,
        -0.6865875720977783
      ],
      "type": "VEC3"
    },
    {
      "bufferView": 2,
      "byteOffset": 209400,
      "componentType": 5126,
      "count": 576,
      "max": [
        0.9890908002853394,
        0.9941911697387695,
        0.9928999543190002
      ],
      "min": [
        -0.9908007383346558,
        -0.993722677230835,
        -0.9925417900085449
      ],
      "type": "VEC3"
    },
    {
      "bufferView": 1,
      "byteOffset": 67496,
      "componentType": 5126,
      "count": 576,
      "max": [
        42.230281829833984,
        5.046381950378418
      ],
      "min": [
        -15.205525398254395,
        -2.051628589630127
      ],
      "type": "VEC2"
    },
    {
      "bufferView": 0,
      "byteOffset": 105168,
      "componentType": 5125,
      "count": 3144,
      "type": "SCALAR"
    },
    {
      "bufferView": 2,
      "byteOffset": 216312,
      "componentType": 5126,
      "count": 1038,
      "max": [
        47.84581756591797,
        47.84581756591797,
        7.445392608642578
      ],
      "min": [
        -47.84581756591797,
        -47.84581756591797,
        -5.751847267150879
      ],
      "type": "VEC3"
    },
    {
      "bufferView": 2,
      "byteOffset": 228768,
      "componentType": 5126,
      "count": 1038,
      "max": [
        0.999998927116394,
        0.999998927116394,
        1.0
      ],
      "min": [
        -0.999998927116394,
        -0.999998927116394,
        -1.0
      ],
      "type": "VEC3"
    },
    {
      "bufferView": 1,
      "byteOffset": 72104,
      "componentType": 5126,
      "count": 1038,
      "max": [
        1.0416666269302368,
        1.0
      ],
      "min": [
        0.0,
        0.0
      ],
      "type": "VEC2"
    },
    {
      "bufferView": 0,
      "byteOffset": 117744,
      "componentType": 5125,
      "count": 1212,
      "type": "SCALAR"
    },
    {
      "bufferView": 2,
      "byteOffset": 241224,
      "componentType": 5126,
      "count": 1180,
      "max": [
        45.66546630859375,
        45.79401397705078,
        8.474553108215332
      ],
      "min": [
        -45.444862365722656,
        -45.48653030395508,
        -6.781007766723633
      ],
      "type": "VEC3"
    },
    {
      "bufferView": 2,
      "byteOffset": 255384,
      "componentType": 5126,
      "count": 1180,
      "max": [
        0.9999560713768005,
        0.9999560713768005,
        1.0
      ],
      "min": [
        -0.9999560713768005,
        -0.9999560713768005,
        -1.0
      ],
      "type": "VEC3"
    },
    {
      "bufferView": 1,
      "byteOffset": 80408,
      "componentType": 5126,
      "count": 1180,
      "max": [
        1.0416666269302368,
        1.0
      ],
      "min": [
        0.0,
        0.0
      ],
      "type": "VEC2"
    },
    {
      "bufferView": 0,
      "byteOffset": 122592,
      "componentType": 5125,
      "count": 1656,
      "type": "SCALAR"
    },
    {
      "bufferView": 2,
      "byteOffset": 269544,
      "componentType": 5126,
      "count": 3228,
      "max": [
        33.76072692871094,
        33.76072692871094,
        8.474553108215332
      ],
      "min": [
        -33.76072692871094,
        -33.76072692871094,
        -6.781007766723633
      ],
      "type": "VEC3"
    },
    {
      "bufferView": 2,
      "byteOffset": 308280,
      "componentType": 5126,
      "count": 3228,
      "max": [
        0.9999403953552246,
        0.9999403357505798,
        1.0
      ],
      "min": [
        -0.9999403357505798,
        -0.9999403953552246,
        -1.0
      ],
      "type": "VEC3"
    },
    {
      "bufferView": 1,
      "byteOffset": 89848,
      "componentType": 5126,
      "count": 3228,
      "max": [
        1.0,
        1.0
      ],
      "min": [
        0.0,
        0.0
      ],
      "type": "VEC2"
    },
    {
      "bufferView": 0,
      "byteOffset": 129216,
      "componentType": 5125,
      "count": 3888,
      "type": "SCALAR"
    },
    {
      "bufferView": 3,
      "componentType": 5126,
      "count": 2,
      "max": [
        1.3333333730697632
      ],
      "min": [
        0.0
      ],
      "type": "SCALAR"
    },
    {
      "bufferView": 4,
      "componentType": 5126,
      "count": 2,
      "max": [
        -0.5861692428588867,
        0.8467726707458496,
        -0.8809366226196289
      ],
      "min": [
        -0.5861692428588867,
        0.8467726707458496,
        -0.8809366226196289
      ],
      "type": "VEC3"
    },
    {
      "bufferView": 3,
      "byteOffset": 8,
      "componentType": 5126,
      "count": 2,
      "max": [
        1.3333333730697632
      ],
      "min": [
        0.0
      ],
      "type": "SCALAR"
    },
    {
      "bufferView": 4,
      "byteOffset": 24,
      "componentType": 5126,
      "count": 2,
      "max": [
        1.0,
        1.0,
        1.0
      ],
      "min": [
        1.0,
        1.0,
        1.0
      ],
      "type": "VEC3"
    },
    {
      "bufferView": 3,
      "byteOffset": 16,
      "componentType": 5126,
      "count": 40,
      "max": [
        1.3333333730697632
      ],
      "min": [
        0.0
      ],
      "type": "SCALAR"
    },
    {
      "bufferView": 5,
      "componentType": 5126,
      "count": 40,
      "max": [
        0.4440063238143921,
        0.70671546459198,
        0.7071200013160706,
        0.7065330743789673
      ],
      "min": [
        -0.7070926427841187,
        -0.4510025978088379,
        -0.45106565952301025,
        -0.4438217580318451
      ],
      "type": "VEC4"
    }
  ],
  "animations": [
    {
      "channels": [
        {
          "sampler": 0,
          "target": {
            "node": 10,
            "path": "translation"
          }
        },
        {
          "sampler": 1,
          "target": {
            "node": 10,
            "path": "scale"
          }
        },
        {
          "sampler": 2,
          "target": {
            "node": 10,
            "path": "rotation"
          }
        }
      ],
      "name": "Take 001",
      "samplers": [
        {
          "input": 28,
          "interpolation": "LINEAR",
          "output": 29
        },
        {
          "input": 30,
          "interpolation": "LINEAR",
          "output": 31
        },
        {
          "input": 32,
          "interpolation": "LINEAR",
          "output": 33
        }
      ]
    }
  ],
  "asset": {
    "extras": {
      "author": "Erneix (https://sketchfab.com/Erneix)",
      "license": "CC-BY-4.0 (http://creativecommons.org/licenses/by/4.0/)",
      "source": "https://sketchfab.com/3d-models/tesla-cutter-extra-d9c821afb6d142b6a262e4d641e2e23c",
      "title": "Tesla Cutter [Extra]"
    },
    "generator": "Sketchfab-12.66.0",
    "version": "2.0"
  },
  "bufferViews": [
    {
      "buffer": 0,
      "byteLength": 144768,
      "name": "floatBufferViews",
      "target": 34963
    },
    {
      "buffer": 0,
      "byteLength": 115672,
      "byteOffset": 144768,
      "byteStride": 8,
      "name": "floatBufferViews",
      "target": 34962
    },
    {
      "buffer": 0,
      "byteLength": 347016,
      "byteOffset": 260440,
      "byteStride": 12,
      "name": "floatBufferViews",
      "target": 34962
    },
    {
      "buffer": 0,
      "byteLength": 176,
      "byteOffset": 607456,
      "name": "floatBufferViews"
    },
    {
      "buffer": 0,
      "byteLength": 48,
      "byteOffset": 607632,
      "byteStride": 12,
      "name": "floatBufferViews"
    },
    {
      "buffer": 0,
      "byteLength": 640,
      "byteOffset": 607680,
      "byteStride": 16,
      "name": "floatBufferViews"
    }
  ],
  "buffers": [
    {
      "byteLength": 608320,
      "uri": "scene.bin"
    }
  ],
  "materials": [
    {
      "doubleSided": true,
      "name": "Material_37",
      "pbrMetallicRoughness": {
        "baseColorFactor": [
          0.105882,
          0.105882,
          0.105882,
          1.0
        ],
        "metallicFactor": 0.0,
        "roughnessFactor": 0.6
      }
    },
    {
      "doubleSided": true,
      "emissiveFactor": [
        0.0745098,
        0.458824,
        0.0
      ],
      "name": "Material_38",
      "pbrMetallicRoughness": {
        "baseColorFactor": [
          0.0745098,
          0.458824,
          0.0,
          1.0
        ],
        "metallicFactor": 0.0,
        "roughnessFactor": 0.6
      }
    },
    {
      "doubleSided": true,
      "name": "01_-_Default",
      "pbrMetallicRoughness": {
        "baseColorFactor": [
          0.588235,
          0.588235,
          0.588235,
          1.0
        ],
        "metallicFactor": 0.0,
        "roughnessFactor": 0.6
      }
    },
    {
      "doubleSided": true,
      "name": "01_-_Default_0",
      "pbrMetallicRoughness": {
        "metallicFactor": 0.0,
        "roughnessFactor": 0.6
      }
    }
  ],
  "meshes": [
    {
      "name": "Cylinder001_Material #37_0",
      "primitives": [
        {
          "attributes": {
            "NORMAL": 1,
            "POSITION": 0,
            "TEXCOORD_0": 2
          },
          "indices": 3,
          "material": 0,
          "mode": 4
        }
      ]
    },
    {
      "name": "Cylinder001_Material #38_0",
      "primitives": [
        {
          "attributes": {
            "NORMAL": 5,
            "POSITION": 4,
            "TEXCOORD_0": 6
          },
          "indices": 7,
          "material": 1,
          "mode": 4
        }
      ]
    },
    {
      "name": "Cylinder001_01 - Default_0",
      "primitives": [
        {
          "attributes": {
            "NORMAL": 9,
            "POSITION": 8,
            "TEXCOORD_0": 10
          },
          "indices": 11,
          "material": 2,
          "mode": 4
        }
      ]
    },
    {
      "name": "Cylinder001_01 - Default_0",
      "primitives": [
        {
          "attributes": {
            "NORMAL": 13,
            "POSITION": 12,
            "TEXCOORD_0": 14
          },
          "indices": 15,
          "material": 3,
          "mode": 4
        }
      ]
    },
    {
      "name": "Object001_Material #38_0",
      "primitives": [
        {
          "attributes": {
            "NORMAL": 17,
            "POSITION": 16,
            "TEXCOORD_0": 18
          },
          "indices": 19,
          "material": 1,
          "mode": 4
        }
      ]
    },
    {
      "name": "Object001_Material #37_0",
      "primitives": [
        {
          "attributes": {
            "NORMAL": 21,
            "POSITION": 20,
            "TEXCOORD_0": 22
          },
          "indices": 23,
          "material": 0,
          "mode": 4
        }
      ]
    },
    {
      "name": "Object001_01 - Default_0",
      "primitives": [
        {
          "attributes": {
            "NORMAL": 25,
            "POSITION": 24,
            "TEXCOORD_0": 26
          },
          "indices": 27,
          "material": 2,
          "mode": 4
        }
      ]
    }
  ],
  "nodes": [
    {
      "children": [
        1
      ],
      "matrix": [
        0.024042636156082153,
        0.0,
        0.0,
        0.0,
        0.0,
        5.338537646633535e-18,
        -0.024042636156082153,
        0.0,
        0.0,
        0.024042636156082153,
        5.338537646633535e-18,
        0.0,
        0.0,
        0.0,
        0.0,
        1.0
      ],
      "name": "Sketchfab_model"
    },
    {
      "children": [
        2
      ],
      "matrix": [
        1.0,
        0.0,
        0.0,
        0.0,
        0.0,
        0.0,
        1.0,
        0.0,
        0.0,
        -1.0,
        0.0,
        0.0,
        0.0,
        0.0,
        0.0,
        1.0
      ],
      "name": "b1dc20fdf2b44d97b1d4e5d7a3464fb2.fbx"
    },
    {
      "children": [
        3
      ],
      "name": "Object_2"
    },
    {
      "children": [
        4,
        10
      ],
      "name": "RootNode"
    },
    {
      "children": [
        5
      ],
      "name": "Cylinder001",
      "rotation": [
        -0.7071068286895752,
        -0.0,
        0.0,
        0.7071068286895752
      ],
      "translation": [
        -5.970698356628418,
        0.8467726707458496,
        5.0965070724487305
      ]
    },
    {
      "children": [
        6,
        7,
        8,
        9
      ],
      "matrix": [
        1.0,
        0.0,
        -0.0,
        0.0,
        0.0,
        1.0,
        0.0,
        0.0,
        0.0,
        0.0,
        1.0,
        0.0,
        5.384529113769531,
        5.977443695068359,
        -0.8467726707458496,
        1.0
      ],
      "name": "Object_5"
    },
    {
      "mesh": 0,
      "name": "Cylinder001_Material #37_0"
    },
    {
      "mesh": 1,
      "name": "Cylinder001_Material #38_0"
    },
    {
      "mesh": 2,
      "name": "Cylinder001_01 - Default_0"
    },
    {
      "mesh": 3,
      "name": "Cylinder001_01 - Default_0"
    },
    {
      "children": [
        11
      ],
      "name": "Object001",
      "rotation": [
        -0.405580073595047,
        0.5792277455329895,
        0.5792277455329895,
        0.405580073595047
      ],
      "translation": [
        -0.5861692428588867,
        0.8467726707458496,
        -0.8809366226196289
      ]
    },
    {
      "children": [
        12,
        13,
        14
      ],
      "matrix": [
        1.0,
        0.0,
        -0.0,
        0.0,
        0.0,
        1.0,
        0.0,
        0.0,
        0.0,
        0.0,
        1.0,
        0.0,
        0.0,
        0.0,
        -0.8467726707458496,
        1.0
      ],
      "name": "Object_11"
    },
    {
      "mesh": 4,
      "name": "Object001_Material #38_0"
    },
    {
      "mesh": 5,
      "name": "Object001_Material #37_0"
    },
    {
      "mesh": 6,
      "name": "Object001_01 - Default_0"
    }
  ],
  "scene": 0,
  "scenes": [
    {
      "name": "Sketchfab_Scene",
      "nodes": [
        0
      ]
    }
  ]
}
